<?xml version="1.0" encoding="utf-8"?>
<!-- Uploaded to: SVG Repo, www.svgrepo.com, Generator: SVG Repo Mixer Tools -->
<svg width="800px" height="800px" viewBox="0 0 1024 1024" class="icon"  version="1.1" xmlns="http://www.w3.org/2000/svg"><path d="M702.537143 218.477714c31.085714-10.825143 55.003429-23.113143 69.924571-35.328 10.24-8.338286 13.458286-13.824 13.458286-16.018285s-3.218286-7.68-13.458286-16.091429c-14.921143-12.141714-38.765714-24.429714-69.924571-35.254857C634.368 92.16 540.013714 78.336 438.857143 78.336s-195.510857 13.897143-263.68 37.449143c-31.085714 10.825143-55.003429 23.113143-69.924572 35.328-10.24 8.338286-13.458286 13.750857-13.458285 16.018286 0 2.194286 3.218286 7.68 13.458285 16.091428 14.921143 12.141714 38.765714 24.429714 69.924572 35.254857 68.169143 23.625143 162.523429 37.449143 263.68 37.449143s195.510857-13.897143 263.68-37.449143zM69.485714 464.749714v128.804572c37.961143 40.009143 140.068571 88.722286 264.777143 103.277714 182.857143 21.284571 355.986286-18.651429 473.526857-98.304l0.438857-131.657143C683.008 540.525714 506.733714 571.465143 328.484571 550.619429c-110.372571-12.8-204.361143-46.08-259.072-85.869715z m0-80.457143c38.034286 39.936 140.068571 88.649143 264.777143 103.131429 183.222857 21.357714 356.717714-18.724571 474.258286-98.742857l0.512-145.993143C734.208 286.573714 596.48 315.977143 438.857143 315.977143c-156.964571 0-294.253714-29.257143-369.152-72.777143A132116.333714 132116.333714 0 0 0 69.485714 384.219429z m0.146286 289.865143l0.292571 108.105143-1.097142-7.460571c22.381714 74.020571 165.302857 133.485714 378.148571 133.485714 115.931429 0 206.774857-17.554286 276.626286-52.077714 19.602286-9.728 34.523429-17.92 49.152-28.598857 9.728-7.094857 16.091429-11.410286 26.550857-20.626286 10.825143-9.581714 27.501714-7.241143 37.156571 3.657143 9.581714 10.752 10.825143 28.306286 0 37.961143-11.702857 10.24-17.188571 14.848-28.598857 23.186285-17.042286 12.434286-36.425143 25.380571-58.806857 36.498286-77.092571 38.107429-155.648 60.854857-302.08 60.854857-243.931429 0-405.211429-77.165714-436.077714-179.2l-1.097143-3.657143v-3.803428L9.362286 628.077714a116682.532571 116682.532571 0 0 1 0.365714-455.68 52.662857 52.662857 0 0 1-0.292571-5.266285C9.508571 84.918857 201.728 18.285714 438.857143 18.285714c237.129143 0 429.348571 66.633143 429.348571 148.845715a53.028571 53.028571 0 0 1-0.804571 9.581714 23.405714 23.405714 0 0 1 1.024 7.094857l-1.682286 520.411429c-0.073143 14.482286-13.385143 26.185143-29.769143 26.112-16.384 0-29.622857-11.776-29.549714-26.331429v-27.355429c-125.074286 73.216-301.056 104.082286-478.939429 83.382858-110.226286-12.873143-204.214857-46.08-258.925714-85.869715z m668.525714-290.962285a25.746286 25.746286 0 0 1-25.965714-25.453715c0-14.043429 11.702857-25.380571 26.038857-25.380571 14.336 0 26.038857 11.337143 26.038857 25.380571 0 14.116571-11.702857 25.453714-26.038857 25.453715z m0 209.408a25.746286 25.746286 0 0 1-25.965714-25.453715c0-14.043429 11.702857-25.453714 26.038857-25.453714 14.336 0 26.038857 11.410286 26.038857 25.453714 0 14.043429-11.702857 25.453714-26.038857 25.453715z m0 212.114285a25.746286 25.746286 0 0 1-25.965714-25.526857c0-14.043429 11.702857-25.453714 26.038857-25.453714 14.336 0 26.038857 11.410286 26.038857 25.453714 0 14.043429-11.702857 25.453714-26.038857 25.453714z" fill="#000000" /></svg>