# Blender 3.3.1
# www.blender.org
mtllib base_tag.mtl
o Cube
v -0.060000 0.000000 -0.000500
v -0.060000 0.000000 0.000500
v 0.000000 -0.000000 -0.000500
v 0.000000 -0.000000 0.000500
v -0.060000 -0.060000 -0.000500
v -0.060000 -0.060000 0.000500
v -0.000000 -0.060000 -0.000500
v -0.000000 -0.060000 0.000500
vn -0.0000 1.0000 -0.0000
vn 1.0000 -0.0000 -0.0000
vn -0.0000 -1.0000 -0.0000
vn -1.0000 -0.0000 -0.0000
vn -0.0000 -0.0000 -1.0000
vn -0.0000 -0.0000 1.0000
vt -0.252023 -0.497055
vt -0.252023 0.502945
vt -0.502023 0.252945
vt -0.002023 -0.497055
vt -0.002023 0.502945
vt 0.992819 0.991538
vt -0.252023 -0.247055
vt -0.502023 0.002945
vt -0.002023 -0.247055
vt 0.992819 0.009353
vt -0.252023 0.252945
vt -0.002023 0.252945
vt 0.010634 0.991538
vt -0.252023 0.002945
vt -0.002023 0.002945
vt 0.010634 0.009353
s 0
usemtl Material.001
f 1/1/1 2/4/1 4/9/1 3/7/1
f 3/7/2 4/9/2 8/15/2 7/14/2
f 7/14/3 8/15/3 6/12/3 5/11/3
f 5/11/4 6/12/4 2/5/4 1/2/4
f 3/8/5 7/14/5 5/11/5 1/3/5
f 8/16/6 4/10/6 2/6/6 6/13/6
o Cube.001
v -0.060000 0.060000 -0.000500
v -0.060000 0.060000 0.000500
v 0.000000 0.060000 -0.000500
v 0.000000 0.060000 0.000500
v -0.060000 0.000000 -0.000500
v -0.060000 0.000000 0.000500
v 0.000000 0.000000 -0.000500
v 0.000000 0.000000 0.000500
vn -0.0000 1.0000 -0.0000
vn 1.0000 -0.0000 -0.0000
vn -0.0000 -1.0000 -0.0000
vn -1.0000 -0.0000 -0.0000
vn -0.0000 -0.0000 -1.0000
vn -0.0000 -0.0000 1.0000
vt -0.252500 -0.496250
vt -0.252500 0.503750
vt -0.502500 0.253750
vt -0.002500 -0.496250
vt -0.002500 0.503750
vt 0.992367 0.994867
vt -0.252500 -0.246250
vt -0.502500 0.003750
vt -0.002500 -0.246250
vt 0.992367 0.007633
vt -0.252500 0.253750
vt -0.002500 0.253750
vt 0.005133 0.994867
vt -0.252500 0.003750
vt -0.002500 0.003750
vt 0.005133 0.007633
s 0
usemtl Material.002
f 9/17/7 10/20/7 12/25/7 11/23/7
f 11/23/8 12/25/8 16/31/8 15/30/8
f 15/30/9 16/31/9 14/28/9 13/27/9
f 13/27/10 14/28/10 10/21/10 9/18/10
f 11/24/11 15/30/11 13/27/11 9/19/11
f 16/32/12 12/26/12 10/22/12 14/29/12
o Cube.002
v 0.000000 0.000000 -0.000500
v 0.000000 0.000000 0.000500
v 0.060000 -0.000000 -0.000500
v 0.060000 -0.000000 0.000500
v -0.000000 -0.060000 -0.000500
v -0.000000 -0.060000 0.000500
v 0.060000 -0.060000 -0.000500
v 0.060000 -0.060000 0.000500
vn -0.0000 1.0000 -0.0000
vn 1.0000 -0.0000 -0.0000
vn -0.0000 -1.0000 -0.0000
vn -1.0000 -0.0000 -0.0000
vn -0.0000 -0.0000 -1.0000
vn -0.0000 -0.0000 1.0000
vt -0.257500 -0.497500
vt -0.257500 0.502500
vt -0.507500 0.252500
vt -0.007500 -0.497500
vt -0.007500 0.502500
vt 0.999745 0.997245
vt -0.257500 -0.247500
vt -0.507500 0.002500
vt -0.007500 -0.247500
vt 0.999745 0.005255
vt -0.257500 0.252500
vt -0.007500 0.252500
vt 0.007755 0.997245
vt -0.257500 0.002500
vt -0.007500 0.002500
vt 0.007755 0.005255
s 0
usemtl Material.003
f 17/33/13 18/36/13 20/41/13 19/39/13
f 19/39/14 20/41/14 24/47/14 23/46/14
f 23/46/15 24/47/15 22/44/15 21/43/15
f 21/43/16 22/44/16 18/37/16 17/34/16
f 19/40/17 23/46/17 21/43/17 17/35/17
f 24/48/18 20/42/18 18/38/18 22/45/18
o Cube.003
v 0.000000 0.060000 -0.000500
v 0.000000 0.060000 0.000500
v 0.060000 0.060000 -0.000500
v 0.060000 0.060000 0.000500
v -0.000000 0.000000 -0.000500
v -0.000000 0.000000 0.000500
v 0.060000 -0.000000 -0.000500
v 0.060000 -0.000000 0.000500
vn -0.0000 1.0000 -0.0000
vn 1.0000 -0.0000 -0.0000
vn -0.0000 -1.0000 -0.0000
vn -1.0000 -0.0000 -0.0000
vn -0.0000 -0.0000 -1.0000
vn -0.0000 -0.0000 1.0000
vt -0.250000 -0.502500
vt -0.250000 0.497500
vt -0.500000 0.247500
vt 0.000000 -0.502500
vt 0.000000 0.497500
vt 0.992813 0.990313
vt -0.250000 -0.252500
vt -0.500000 -0.002500
vt 0.000000 -0.252500
vt 0.992813 0.007188
vt -0.250000 0.247500
vt 0.000000 0.247500
vt 0.009688 0.990313
vt -0.250000 -0.002500
vt 0.000000 -0.002500
vt 0.009688 0.007188
s 0
usemtl Material.004
f 25/49/19 26/52/19 28/57/19 27/55/19
f 27/55/20 28/57/20 32/63/20 31/62/20
f 31/62/21 32/63/21 30/60/21 29/59/21
f 29/59/22 30/60/22 26/53/22 25/50/22
f 27/56/23 31/62/23 29/59/23 25/51/23
f 32/64/24 28/58/24 26/54/24 30/61/24
